<svg xmlns="http://www.w3.org/2000/svg" width="177.912" height="86.496" viewBox="0 0 177.912 86.496"><g transform="translate(-3864.16 -1763.596)"><path d="M20.484-10.116A1.7,1.7,0,0,0,20-11.34a1.735,1.735,0,0,0-1.206-.54H7.272v9.252a2.156,2.156,0,0,0,.684,1.6,2.244,2.244,0,0,0,1.62.666h.468V0H2.16V-.36h.468a2.184,2.184,0,0,0,1.6-.666,2.317,2.317,0,0,0,.7-1.6v-20.16a1.84,1.84,0,0,0-.7-1.458,2.411,2.411,0,0,0-1.6-.594H2.2L2.16-25.2H12.708a13.279,13.279,0,0,0,2.736-.252,11.853,11.853,0,0,0,1.548-.4v4.068h-.36v-.54a1.727,1.727,0,0,0-.5-1.242,1.679,1.679,0,0,0-1.26-.522h-7.6V-12.96H18.756a1.8,1.8,0,0,0,1.224-.54,1.71,1.71,0,0,0,.5-1.26v-.5h.36v5.688h-.36ZM23.472-.36a2.184,2.184,0,0,0,1.6-.666,2.317,2.317,0,0,0,.7-1.6v-19.98a2.253,2.253,0,0,0-.7-1.584,2.215,2.215,0,0,0-1.6-.648H23v-.36h7.884v.36H30.42a2.215,2.215,0,0,0-1.6.648,2.253,2.253,0,0,0-.7,1.584v19.98a2.156,2.156,0,0,0,.684,1.6,2.244,2.244,0,0,0,1.62.666h.468V0H23V-.36Zm12.168,0a2.184,2.184,0,0,0,1.6-.666,2.317,2.317,0,0,0,.7-1.6v-20.16a1.858,1.858,0,0,0-.684-1.458,2.39,2.39,0,0,0-1.62-.594h-.432l-.036-.36H45.72a15.053,15.053,0,0,0,2.43-.216A9.936,9.936,0,0,0,50-25.848v4.536h-.36v-.648a2.043,2.043,0,0,0-.594-1.476,2.043,2.043,0,0,0-1.422-.648H40.284V-12.96h6.084a1.8,1.8,0,0,0,1.224-.54,1.71,1.71,0,0,0,.5-1.26v-.5h.36v5.688H48.1v-.54a1.7,1.7,0,0,0-.486-1.224,1.735,1.735,0,0,0-1.206-.54h-6.12V-1.116h5.148A6.139,6.139,0,0,0,49.5-2.3a8.8,8.8,0,0,0,2.34-3.528h.36L50.112,0H35.172V-.36ZM81.792-24.84a2.143,2.143,0,0,0-1.548.63,2.183,2.183,0,0,0-.684,1.53V-4.1a29.7,29.7,0,0,0,.252,3.96L79.884.5H79.56L59.94-20.448V-2.52a2.054,2.054,0,0,0,.648,1.53,2.143,2.143,0,0,0,1.548.63h.684V0H55.4V-.36h.684a2.143,2.143,0,0,0,1.548-.63,2.1,2.1,0,0,0,.648-1.566V-21.24a27.41,27.41,0,0,0-.252-3.924l-.072-.576h.36L77.94-4.788V-22.644a2.222,2.222,0,0,0-.684-1.566,2.143,2.143,0,0,0-1.548-.63h-.684v-.36H82.44v.36Zm16.272-.36a12.853,12.853,0,0,1,9.342,3.474,12.138,12.138,0,0,1,3.582,9.126,12.138,12.138,0,0,1-3.582,9.126A12.853,12.853,0,0,1,98.064,0H85.86V-.36h.468a2.184,2.184,0,0,0,1.6-.666,2.317,2.317,0,0,0,.7-1.6v-20.16a1.84,1.84,0,0,0-.7-1.458,2.411,2.411,0,0,0-1.6-.594H85.9l-.036-.36Zm-7.092,1.08V-1.08h7.092a9.933,9.933,0,0,0,5.346-1.44,9.618,9.618,0,0,0,3.6-4.05,13.549,13.549,0,0,0,1.278-6.03,12.077,12.077,0,0,0-2.826-8.352,9.442,9.442,0,0,0-7.4-3.168ZM114.948-1.476a11.212,11.212,0,0,1-.108-1.944,9.69,9.69,0,0,1,.54-3.06h.324q-.036.4-.036.792A5.212,5.212,0,0,0,117-2.034a4.549,4.549,0,0,0,3.528,1.458,5.228,5.228,0,0,0,3.726-1.368,4.516,4.516,0,0,0,1.458-3.438,4.37,4.37,0,0,0-1.4-3.366L117.4-15.156a5.721,5.721,0,0,1-1.944-4.356,6.157,6.157,0,0,1,1.71-4.374,6.046,6.046,0,0,1,4.626-1.818,15.348,15.348,0,0,1,3.1.36h1.4v4.428h-.324a3.384,3.384,0,0,0-1.17-2.7,4.441,4.441,0,0,0-3.006-1.008A4.212,4.212,0,0,0,118.71-23.4a4.121,4.121,0,0,0-1.242,3.06,4.173,4.173,0,0,0,1.44,3.168L126-10.62a5.858,5.858,0,0,1,1.8,4.536,6.445,6.445,0,0,1-1.836,4.734A6.581,6.581,0,0,1,121.068.5,12.812,12.812,0,0,1,117.7.018,5.883,5.883,0,0,1,114.948-1.476Zm65.124,4a10.49,10.49,0,0,1-7.02,2.736,14.3,14.3,0,0,1-5.94-1.476,20.251,20.251,0,0,1-3.6-2.214q-1.656-1.278-4.068-3.258a13.109,13.109,0,0,1-7.38,2.16,14.363,14.363,0,0,1-4.032-.576,10.378,10.378,0,0,1-4.824-2.808,7.037,7.037,0,0,1-2.016-5.076,7.266,7.266,0,0,1,1.1-4.014,7.787,7.787,0,0,1,3.042-2.718,8.939,8.939,0,0,1-1.548-4.95,5.72,5.72,0,0,1,1.8-4.3,6.981,6.981,0,0,1,5.04-1.728A8.074,8.074,0,0,1,157-23.148l-.5,4.068h-.36a5.974,5.974,0,0,0-1.548-4.05,4.836,4.836,0,0,0-3.636-1.494,4.436,4.436,0,0,0-3.456,1.386,4.92,4.92,0,0,0-1.26,3.438,6.928,6.928,0,0,0,1.458,4.248,34.338,34.338,0,0,0,4.824,4.86q3.366,2.916,8.01,6.84a14.9,14.9,0,0,0,3.2-4.176,14.479,14.479,0,0,0,1.728-6.984,14.931,14.931,0,0,0-.432-3.564,12.814,12.814,0,0,0-2.808-5.256,18.3,18.3,0,0,0-5.616-4.356l.18-.216a16.958,16.958,0,0,1,5.148,3.168,13.57,13.57,0,0,1,4.536,10.476,15.819,15.819,0,0,1-2.124,7.776,16.052,16.052,0,0,1-2.988,3.816l2.3,1.872A24.541,24.541,0,0,0,171,2.916a12.3,12.3,0,0,0,3.96.576,11.369,11.369,0,0,0,4.932-1.3ZM146.916-2.592a9.326,9.326,0,0,0,5.8,1.944,10.972,10.972,0,0,0,5.9-1.728q-5-4.176-8.1-6.876a35.042,35.042,0,0,1-4.572-4.608,7.122,7.122,0,0,0-2.16,5.472A7.006,7.006,0,0,0,146.916-2.592Z" transform="translate(3862 1792)" fill="#eee"/><path d="M-1.336-20.83H3.779L4.5-22.8a13.48,13.48,0,0,1,3.322-5.414,6.556,6.556,0,0,1,4.553-1.881,5.018,5.018,0,0,1,1.459.2,3.484,3.484,0,0,1,1.143.571,2.778,2.778,0,0,1,.747.87,2.262,2.262,0,0,1,.272,1.1,1.882,1.882,0,0,1-.422,1.31,1.486,1.486,0,0,1-1.16.466,1.271,1.271,0,0,1-.94-.343,1.271,1.271,0,0,1-.343-.94,1.363,1.363,0,0,1,.3-.914.987.987,0,0,1,.791-.352,1.039,1.039,0,0,1,.352.07.682.682,0,0,0,.088.035.289.289,0,0,0,.088.018q.158,0,.158-.211a.591.591,0,0,0-.22-.457A1.846,1.846,0,0,0,14.124-29a3.95,3.95,0,0,0-.756-.2,4.765,4.765,0,0,0-.8-.07A3.52,3.52,0,0,0,11-28.916,4.316,4.316,0,0,0,9.633-27.8a10.226,10.226,0,0,0-1.266,1.969,25.98,25.98,0,0,0-1.23,2.892L6.363-20.83h5.309v.7H6.117L-4.57,9.264h-2.6L3.516-20.127H-1.336Zm21.552-9.264h2.619L14.977-8.525q-.246.686-.492,1.4t-.431,1.406q-.185.694-.3,1.336A6.8,6.8,0,0,0,13.641-3.2a2.8,2.8,0,0,0,.642,1.934,2.539,2.539,0,0,0,2,.721,5.35,5.35,0,0,0,2.276-.51,8.234,8.234,0,0,0,2.18-1.538,17.107,17.107,0,0,0,2.171-2.584q1.09-1.556,2.268-3.63l.914-1.617.475.334-.914,1.617Q24.364-6.205,23.2-4.544A17.235,17.235,0,0,1,20.857-1.8,8.584,8.584,0,0,1,18.475-.193a6.41,6.41,0,0,1-2.584.527A5.087,5.087,0,0,1,14,.009a3.7,3.7,0,0,1-1.371-.923A3.906,3.906,0,0,1,11.8-2.355a5.925,5.925,0,0,1-.281-1.881,10.471,10.471,0,0,1,.211-2,15.457,15.457,0,0,1,.65-2.294Zm5.749,19.881a16.88,16.88,0,0,1,1.8-4.359,16.1,16.1,0,0,1,2.725-3.472,12.185,12.185,0,0,1,3.34-2.294,8.637,8.637,0,0,1,3.63-.826,5.566,5.566,0,0,1,2.487.5,4.375,4.375,0,0,1,1.626,1.345,5.39,5.39,0,0,1,.879,1.951,9.987,9.987,0,0,1,.264,2.32,13.861,13.861,0,0,1-.255,2.637A19.231,19.231,0,0,1,41.8-9.9,18.907,18.907,0,0,1,39.851-5.81a16.716,16.716,0,0,1-2.663,3.243,11.89,11.89,0,0,1-3.12,2.136,7.811,7.811,0,0,1-3.3.765,5.39,5.39,0,0,1-2.241-.448,4.541,4.541,0,0,1-1.679-1.292,5.974,5.974,0,0,1-1.055-2.065,9.5,9.5,0,0,1-.369-2.751A14.343,14.343,0,0,1,25.56-8.2,17.235,17.235,0,0,1,25.965-10.213ZM31.027-.545A5.317,5.317,0,0,0,33.6-1.266a10.462,10.462,0,0,0,2.531-2.013A17.047,17.047,0,0,0,38.41-6.363,22.487,22.487,0,0,0,40.22-10.3q.211-.58.413-1.3t.378-1.5q.176-.782.281-1.6a12.429,12.429,0,0,0,.105-1.591A7.924,7.924,0,0,0,41.24-17.9,3.7,3.7,0,0,0,40.7-19.23a2.708,2.708,0,0,0-1.02-.9,3.419,3.419,0,0,0-1.591-.334,5.643,5.643,0,0,0-2.716.729,9.744,9.744,0,0,0-2.549,2.057A15.664,15.664,0,0,0,30.64-14.5a21.306,21.306,0,0,0-1.635,4.078,23.729,23.729,0,0,0-.677,3,17.66,17.66,0,0,0-.237,2.733Q28.092-.545,31.027-.545ZM60.77-19.582a.783.783,0,0,0-.36-.571,1.635,1.635,0,0,0-1.046-.29,3.341,3.341,0,0,0-1.529.431,7.856,7.856,0,0,0-1.881,1.521,24.366,24.366,0,0,0-2.364,2.971q-1.31,1.881-2.962,4.8l-.879,1.547L46.426,0H43.807L51.4-20.83H54l-3.076,8.438q1.441-2.479,2.637-4.157a22.042,22.042,0,0,1,2.215-2.707,7.4,7.4,0,0,1,1.916-1.468,3.975,3.975,0,0,1,1.758-.439,2.4,2.4,0,0,1,1.819.686,2.479,2.479,0,0,1,.659,1.793,3.25,3.25,0,0,1-.114.87,2.162,2.162,0,0,1-.334.712,1.66,1.66,0,0,1-.536.475,1.423,1.423,0,0,1-.7.176,1.793,1.793,0,0,1-.554-.088,1.36,1.36,0,0,1-.483-.272,1.449,1.449,0,0,1-.343-.448,1.359,1.359,0,0,1-.132-.615,1.8,1.8,0,0,1,.1-.571,1.635,1.635,0,0,1,.272-.51,1.468,1.468,0,0,1,.422-.36,1.079,1.079,0,0,1,.545-.141,1.879,1.879,0,0,1,.369.035.305.305,0,0,0,.1.062.267.267,0,0,0,.1.026Q60.77-19.336,60.77-19.582Zm3.2,9.316a19.617,19.617,0,0,1,1.512-3.454,17.823,17.823,0,0,1,1.907-2.769,14.47,14.47,0,0,1,2.162-2.092,14,14,0,0,1,2.268-1.45,11.073,11.073,0,0,1,2.232-.853,8.347,8.347,0,0,1,2.065-.281,3.991,3.991,0,0,1,1.67.308A2.762,2.762,0,0,1,78.868-20a3.479,3.479,0,0,1,.589,1.336,7.908,7.908,0,0,1,.176,1.731l1.424-3.9h2.6l-4.482,12.3q-.246.686-.492,1.4t-.431,1.406q-.185.694-.3,1.336A6.8,6.8,0,0,0,77.839-3.2a2.8,2.8,0,0,0,.642,1.934,2.539,2.539,0,0,0,2,.721,5.488,5.488,0,0,0,2.285-.5A8,8,0,0,0,84.95-2.575a17.107,17.107,0,0,0,2.171-2.584,41.325,41.325,0,0,0,2.25-3.647l.9-1.617.475.334-.914,1.617a46.3,46.3,0,0,1-2.452,3.946,17.527,17.527,0,0,1-2.329,2.742,8.3,8.3,0,0,1-2.373,1.6,6.5,6.5,0,0,1-2.584.519A5.087,5.087,0,0,1,78.2.009a3.7,3.7,0,0,1-1.371-.923,3.906,3.906,0,0,1-.835-1.441,5.925,5.925,0,0,1-.281-1.881,9.81,9.81,0,0,1,.123-1.485A13.565,13.565,0,0,1,76.2-7.383a23.3,23.3,0,0,1-4.553,5.792A7.022,7.022,0,0,1,67.081.334a4,4,0,0,1-1.854-.4A3.413,3.413,0,0,1,63.97-1.169a4.908,4.908,0,0,1-.721-1.67,9.051,9.051,0,0,1-.229-2.1,14.6,14.6,0,0,1,.246-2.593A19.731,19.731,0,0,1,63.97-10.266ZM67.714-.545a4.243,4.243,0,0,0,1.934-.5,9.324,9.324,0,0,0,1.96-1.371A15.582,15.582,0,0,0,73.5-4.456a27.222,27.222,0,0,0,1.731-2.5q.817-1.327,1.5-2.733a29.787,29.787,0,0,0,1.187-2.769,20.02,20.02,0,0,0,.773-2.6,10.468,10.468,0,0,0,.272-2.224,4.449,4.449,0,0,0-.22-1.5,2.774,2.774,0,0,0-.58-.984,2.036,2.036,0,0,0-.826-.536,2.959,2.959,0,0,0-.958-.158,4.938,4.938,0,0,0-2.188.606,9.845,9.845,0,0,0-2.452,1.846,18.119,18.119,0,0,0-2.452,3.129,25.885,25.885,0,0,0-2.206,4.438A28.452,28.452,0,0,0,65.842-6.5a14.061,14.061,0,0,0-.413,3.023,3.672,3.672,0,0,0,.554,2.153A1.975,1.975,0,0,0,67.714-.545Z" transform="translate(3878 1840.828)" fill="#eee"/><g transform="translate(3976.708 1799.888)"><path d="M310.2,387.439c.514-.707,2.441-.514,2.826-1.028.514-.514,0-1.991,0-1.991l2.441,1.477a5.493,5.493,0,0,1,3.083,0c1.542.514,1.606.9,1.606.9s.642,1.734-.321,2.762c-.964,1.092-1.285,1.028-2.826,1.22a12.684,12.684,0,0,1-3.854-.578l-2.441-1.349c-.064.064-1.028-.706-.514-1.413Z" transform="translate(-289.884 -357.497)" fill="#541212"/><path d="M408.963,358.58c.321-.642,1.285-2.184,1.285-2.184s1.22-2.441,2.7-2.569c1.542-.128,1.542.964,1.542.964a9.61,9.61,0,0,1,0,3.469c-.385,1.477-.9,3.533-2.056,4.175-.707.385-2.12,1.413-3.083.707-.578-.258-.706-3.854-.385-4.561Z" transform="translate(-376.571 -330.63)" fill="#541212"/><path d="M392.053,296.225a2.758,2.758,0,0,1,1.542-1.606,2.428,2.428,0,0,1,2.12.064,6.523,6.523,0,0,0-1.8-2.762c-1.156-.9-3.4-3.276-4.047-2.955-.9.385-.257.128-1.477,1.606s-.257.642,1.542,1.67c1.67.835,2.12,3.983,2.12,3.983Z" transform="translate(-358.182 -273.671)" fill="#541212"/><path d="M372.466,326.726c-1.22.321-3.019.257-3.212-.9s.064-.321.9-2.634a9.34,9.34,0,0,0,0-5.075,23.2,23.2,0,0,1,3.983,2.248c.771.771.707,1.22.642,2.634,0,1.285-1.092,3.4-2.313,3.726Z" transform="translate(-341.808 -299.29)" fill="#541212"/><path d="M315.413,281.125c-.9-.128-.514-.707-.514-.707l1.606-2.634s3.019-.642,4.111.064c1.156.771,3.854.771,3.854.771s-2.248,2.826-3.34,3.34c-1.156.514-3.469-1.413-3.469-1.413A4.593,4.593,0,0,1,315.413,281.125Z" transform="translate(-294.069 -263.645)" fill="#541212"/><path d="M300.827,314.943c-1.028-.642-3.533,0-3.533,0l-1.542-.514a4.69,4.69,0,0,0,0,3.019c.578,1.67,2.248,3.276,2.7,3.019.835-.449,3.4-4.946,2.377-5.524Z" transform="translate(-277.106 -296.051)" fill="#541212"/><path d="M342.313,334.611s-.064-1.606.835-2.248a5.226,5.226,0,0,1,2.634-.578s.45,1.092-.321,1.67a1.21,1.21,0,0,1-1.477,0Z" transform="translate(-318.207 -311.286)" fill="#541212"/><path d="M332.33,357.7l1.8-1.028,1.156-.193s1.349-.45,1.349.193c0,.707-.707,1.8-.514,2.7s-1.67-.514-1.67-.514Z" transform="translate(-309.444 -332.837)" fill="#541212"/><path d="M393.212,237.676c.45-2.7-.9-2.7-.9-2.7h5.2l1.156,1.028s2.762,2.7,2.891,4.689a19.644,19.644,0,0,1-.964,5.4s-2.955-4.368-4.561-5.139a8.5,8.5,0,0,0-1.22-.514c-.707-.257-2.056-.128-1.607-2.762Z" transform="translate(-362.105 -226.299)" fill="#541212"/><path d="M460.72,293.044s1.991-1.285,2.184-2.826.257-3.661.257-3.661,5.075,2.891,4.561,7.965c-.45,5.01-6.681,6.359-6.681,6.359a4.744,4.744,0,0,0,1.285-4.24c-.449-3.019-1.606-3.6-1.606-3.6Z" transform="translate(-422.16 -271.58)" fill="#541212"/><path d="M454.265,205.629a1.929,1.929,0,0,1,2.248-1.734c.321,0,3.083,1.028,3.083,1.028l.771-1.028s2.505,5.91,2.634,7.259c.385,4.175-.964,4.946-.964,4.946a41.444,41.444,0,0,0-4.047-4.432C456.256,210.447,454.008,207.556,454.265,205.629Z" transform="translate(-416.476 -199.005)" fill="#541212"/><path d="M314.655,220.124s.771-2.7,0-3.854-8.543-3.918-8.543-3.918l-.257,1.991a5.591,5.591,0,0,0-.964,2.634,17.925,17.925,0,0,0,1.285,3.212s.578-1.349,1.477-1.542a3.24,3.24,0,0,1,2.12.707,3.083,3.083,0,0,1,1.67-.964c1.286-.385,3.213,1.735,3.213,1.735Z" transform="translate(-285.345 -206.435)" fill="#541212"/><path d="M308.12,167.87s1.22-1.092,3.4-2.762c2.248-1.8,2.441-1.092,2.441-1.092a36.268,36.268,0,0,0,3.083,2.955c.835.514,4.561,2.056,4.561,2.056s3.019,1.285,1.8,1.67c-1.349.385-6.295.964-6.295.964a24.591,24.591,0,0,0-4.24-2.569,17.426,17.426,0,0,0-4.753-1.221Z" transform="translate(-288.19 -163.879)" fill="#541212"/><path d="M241.436,339.046c-.642-.771-1.863-2.12-1.863-2.12l-3.019-.385s-2.569.835-2.634,1.927,6.552,5.91,8.479,5.845a3.437,3.437,0,0,0,2.891-1.67l-2.569-1.22c.257-.065-.578-1.607-1.285-2.377Z" transform="translate(-223.048 -315.463)" fill="#541212"/><path d="M230.69,263.532a6.394,6.394,0,0,1-1.22-2.056,13.033,13.033,0,0,1-.835-4.175,12.9,12.9,0,0,0,0-1.927l3.6-.578a6.592,6.592,0,0,1,2.891,0,4.314,4.314,0,0,1,1.927,1.285l.964,2.248s-1.028,1.413-1.67,2.441a5.287,5.287,0,0,0-.514,2.7l-2.248-.321a8.622,8.622,0,0,0-2.891.385Z" transform="translate(-218.404 -243.547)" fill="#541212"/><path d="M198.327,203.913a11.621,11.621,0,0,1-2.634-2.955c-.578-1.349-.707-.964-.707-2.377s1.8-3.4,1.8-3.4l1.349-4.625,5.653.128s6.873-1.67,2.12,5.781c-1.092.771-8.029,1.542-8.029,1.542l-.193,2.826Z" transform="translate(-188.867 -187.268)" fill="#541212"/><path d="M154.493,293.628s-.9-1.991-2.569-1.863a3.816,3.816,0,0,0-2.441.964s-.193,5.46.321,7.387c.964,3.661,1.863,6.038,4.368,6.231,2.634.193,2.634-1.22,2.634-1.22l.9-1.863s2.12-.064,2.248-.835c.064-.771.064-.385-.835-1.67a7.5,7.5,0,0,0-2.12-1.991l2.377-1.863-1.734-1.991s.193-.193-.642-.835a5.67,5.67,0,0,0-2.506-.45Z" transform="translate(-148.887 -276.148)" fill="#541212"/><path d="M225.525,392.877a3.712,3.712,0,0,1-2.377-1.092l-3.148.257-1.863,2.89a13.729,13.729,0,0,1,3.79,1.092,48.7,48.7,0,0,0,6.745,1.863l1.606-.578a2.593,2.593,0,0,1-1.8-1.413c-.578-1.22-.835-1.734-.835-1.734a2.649,2.649,0,0,0-2.12-1.285Z" transform="translate(-209.192 -363.963)" fill="#541212"/><path d="M405.47,415.956l.642,2.312a8.956,8.956,0,0,0,1.22,2.826c.771,1.028,1.285.964,1.285.964a6.557,6.557,0,0,0,3.918-1.156c1.734-1.285,1.67-2.377,2.634-3.083a6.728,6.728,0,0,0,1.477-2.12s.578-3.533-.964-3.6a3.9,3.9,0,0,0-2.955.707c-.771.514-1.028,1.67-2.248,2.634a5.523,5.523,0,0,1-2.634,1.092Z" transform="translate(-373.656 -381.775)" fill="#541212"/><path d="M510.678,338.638c-.064-.771.578-.964,1.092-1.991a6.778,6.778,0,0,0,.642-2.634,39.706,39.706,0,0,1,4.689-3.34c.835-.257,1.542,4.111,1.542,4.111s-3.147,8.672-4.689,9.122a5.048,5.048,0,0,1-2.826,0l.578-1.8.128-2.12a1.686,1.686,0,0,1-1.156-1.349Z" transform="translate(-466.016 -310.301)" fill="#541212"/><path d="M523.077,219.84a3.094,3.094,0,0,0,3.212,0c1.67-1.028,1.092-.514,1.092-.514a7.7,7.7,0,0,1,2.056,5.974,21.818,21.818,0,0,0,0,5.01s-4.368,3.661-5.653,2.505c-1.285-1.22-.514-1.927-.514-1.927a16.691,16.691,0,0,0,1.67-3.019,6.632,6.632,0,0,0,.193-2.569Z" transform="translate(-476.874 -212.445)" fill="#541212"/><path d="M202.988,430.658c-1.606-.193-1.927,2.441-1.028,3.661s4.111,2.12,7.323,2.955c4.368,1.092,7.965-3.79,7.773-4.368s-1.927.321-3.79.385c-2.056.064-8.736-2.377-10.278-2.634Z" transform="translate(-194.555 -398.082)" fill="#541212"/><path d="M318.844,442.223a5.334,5.334,0,0,1-.9,2.377,4.616,4.616,0,0,1-1.927,2.184,9.747,9.747,0,0,0,4.24,2.312,13.686,13.686,0,0,0,2.891-.45,6.426,6.426,0,0,0,2.7-1.734c.9-1.22-.642-5.139-.642-5.139a4.7,4.7,0,0,1-2.634,1.092,12.346,12.346,0,0,1-3.726-.642Z" transform="translate(-295.123 -407.849)" fill="#541212"/><path d="M493.849,370.84c-.578-.064-2.184,1.67-1.863,2.505.257.835,4.175,1.477,6.231,1.542s5.01-3.854,5.01-3.854a5.791,5.791,0,0,1,.064-3.469,31.062,31.062,0,0,1,2.569-4.625,4.834,4.834,0,0,0,.064-2.441c-.385-1.285-2.441-.835-2.441-.835s-2.955,9.892-5.589,11.177c-1.863.835-2.248.064-4.047,0Z" transform="translate(-449.573 -335.696)" fill="#541212"/><path d="M397.412,491.072c1.606-.064,6.167.321,9.121-1.734a8.6,8.6,0,0,0,2.505-2.505l.642-2.891s-3.79-.064-4.625-1.22c-.514-.707-2.377,3.148-7.13,3.083-1.349,0-1.542-2.377-3.019-1.542-1.606.835-1.542,1.349-1.542,1.349s2.505,5.524,4.047,5.46Z" transform="translate(-363.028 -443.723)" fill="#541212"/><path d="M269.484,498.61a6.985,6.985,0,0,0,3.983,1.734,12.219,12.219,0,0,0,4.561,0,4.909,4.909,0,0,1,1.927,2.312c.385,1.349-.128,1.67-.9,2.505-.771.771-6.167,2.7-6.167,2.7l-4.5-2.056s-3.726-1.8-4.047-2.826c-.257-1.092,3.4-2.248,3.4-2.248Z" transform="translate(-249.747 -457.748)" fill="#541212"/><path d="M150.59,420.953a6.242,6.242,0,0,0-2.377-.771c-5.267.193-2.762,8.8-2.762,8.8s6.745,3.533,9.057,4.175c2.377.642,7.965-3.019,7.965-3.019l-8.03-1.735s-2.955-1.349-3.726-2.762c-.707-1.413-.128-4.689-.128-4.689Z" transform="translate(-144.856 -388.891)" fill="#541212"/></g></g></svg>